# xmcd
#
# Track frame offsets:
#	150
#	22745
#	38122
#	59065
#
# Disc length: 1087 seconds
#
# Revision: 1
# Processed by: cddbd v1.5PL3 Copyright (c) Steve Scherf et al.
# Submitted via: CDex 1.50Beta5
#
DISCID=2b043d04
DTITLE=CHARCOAL FILTER - White winter song
DYEAR=2002
DGENRE=Rock
TTITLE0=White winter song
TTITLE1=WOW WOW パラダイス
TTITLE2=卒業〜贈ることバージョン〜
TTITLE3=White winter song〜instrumental〜
EXTD=
EXTT0=
EXTT1=
EXTT2=
EXTT3=
PLAYORDER=
